<?xml version="1.0" encoding="UTF-8" standalone="no"?>
<!-- Created with Inkscape (http://www.inkscape.org/) -->

<svg
   width="332mm"
   height="54mm"
   viewBox="0 0 332 54.000015"
   version="1.1"
   id="svg5"
   sodipodi:docname="meter_none.svg"
   inkscape:version="1.2.1 (9c6d41e410, 2022-07-14)"
   xmlns:inkscape="http://www.inkscape.org/namespaces/inkscape"
   xmlns:sodipodi="http://sodipodi.sourceforge.net/DTD/sodipodi-0.dtd"
   xmlns="http://www.w3.org/2000/svg"
   xmlns:svg="http://www.w3.org/2000/svg">
  <sodipodi:namedview
     id="namedview7"
     pagecolor="#505050"
     bordercolor="#ffffff"
     borderopacity="1"
     inkscape:showpageshadow="0"
     inkscape:pageopacity="0"
     inkscape:pagecheckerboard="1"
     inkscape:deskcolor="#505050"
     inkscape:document-units="mm"
     showgrid="false"
     inkscape:zoom="1"
     inkscape:cx="982.5"
     inkscape:cy="201.5"
     inkscape:window-width="1920"
     inkscape:window-height="991"
     inkscape:window-x="-9"
     inkscape:window-y="-9"
     inkscape:window-maximized="1"
     inkscape:current-layer="layer1" />
  <defs
     id="defs2">
    <inkscape:path-effect
       effect="ruler"
       id="path-effect279"
       is_visible="true"
       lpeversion="1"
       unit="mm"
       mark_distance="5.01"
       mark_length="27"
       minor_mark_length="13.5"
       major_mark_steps="2"
       shift="0"
       offset="0"
       mark_dir="left"
       border_marks="both" />
    <inkscape:path-effect
       effect="ruler"
       id="path-effect279-0"
       is_visible="true"
       lpeversion="1"
       unit="mm"
       mark_distance="6.66"
       mark_length="54"
       minor_mark_length="13.5"
       major_mark_steps="6"
       shift="0"
       offset="0"
       mark_dir="left"
       border_marks="both" />
    <inkscape:path-effect
       effect="ruler"
       id="path-effect279-3"
       is_visible="true"
       lpeversion="1"
       unit="mm"
       mark_distance="5.01"
       mark_length="27"
       minor_mark_length="13.5"
       major_mark_steps="2"
       shift="0"
       offset="0"
       mark_dir="left"
       border_marks="both" />
  </defs>
  <g
     inkscape:label="Layer 1"
     inkscape:groupmode="layer"
     id="layer1">
    <path
       style="fill:none;stroke:#000000;stroke-width:0.264583px;stroke-linecap:butt;stroke-linejoin:miter;stroke-opacity:1"
       d="M 286.4776,34.925 Z"
       id="path220" />
    <path
       style="fill:#ffffff;fill-opacity:1;stroke:#ffffff;stroke-width:1.47299991;stroke-linecap:butt;stroke-linejoin:miter;stroke-opacity:1;stroke-dasharray:none"
       d="M 0.26384532,53.716925 H 331.72209 m -331.45824468,0 v -27 m 5.00999998,27 v -13.5 m 5.0099997,13.5 v -27 m 5.01,27 v -13.5 m 5.01,13.5 v -27 m 5.01,27 v -13.5 m 5.01,13.5 v -27 m 5.01,27 v -13.5 m 5.01,13.5 v -27 m 5.01,27 v -13.5 m 5.01,13.5 v -27 m 5.01,27 v -13.5 m 5.01,13.5 v -27 m 5.01,27 v -13.5 m 5.01,13.5 v -27 m 5.01,27 v -13.5 m 5.01,13.5 v -27 m 5.01,27 v -13.5 m 5.01,13.5 v -27 m 5.01,27 v -13.5 m 5.010005,13.5 v -27 m 5.01,27 v -13.5 m 5.01,13.5 v -27 m 5.01,27 v -13.5 m 5.01,13.5 v -27 m 5.01,27 v -13.5 m 5.01,13.5 v -27 m 5.01,27 v -13.5 m 5.01,13.5 v -27 m 5.01,27 v -13.5 m 5.01,13.5 v -27 m 5.01,27 v -13.5 m 5.01,13.5 v -27 m 5.01,27 v -13.5 m 5.01,13.5 v -27 m 5.01,27 v -13.5 m 5.01,13.5 v -27 m 5.01,27 v -13.5 m 5.01,13.5 v -27 m 5.01,27 v -13.5 m 5.01,13.5 v -27 m 5.01,27 v -13.5 m 5.01,13.5 v -27 m 5.01,27 v -13.5 m 5.01,13.5 v -27 m 5.01,27 v -13.5 m 5.01,13.5 v -27 m 5.01,27 v -13.5 m 5.01,13.5 v -27 m 5.01,27 v -13.5 m 5.01,13.5 v -27 m 5.01,27 v -13.5 m 5.01,13.5 v -27 m 5.01,27 v -13.5 m 5.01,13.5 v -27 m 5.01,27 v -13.5 m 5.01,13.5 v -27 m 5.01,27 v -13.5 m 5.01,13.5 v -27 m 5.01,27 v -13.5 m 5.01,13.5 v -27 m 5.01,27 v -13.5 m 5.01,13.5 v -27 m 5.01,27 v -13.5 m 5.01,13.5 v -27 m 5.01,27 v -13.5 m 5.01,13.5 v -27 m 0.79824,27 v -27"
       id="path222"
       inkscape:path-effect="#path-effect279"
       inkscape:original-d="M 0.26384532,53.716925 H 331.72209"
       sodipodi:nodetypes="cc" />
    <path
       style="fill:#ffffff;fill-opacity:1;stroke:#ffffff;stroke-width:1.473;stroke-linecap:butt;stroke-linejoin:miter;stroke-dasharray:none;stroke-opacity:1"
       d="M -0.52981792,0.59680944 H 330.92842"
       id="path222-5"
       sodipodi:nodetypes="cc" />
    <path
       style="fill:none;stroke:#ffffff;stroke-width:1.473;stroke-linecap:butt;stroke-linejoin:miter;stroke-dasharray:none;stroke-opacity:1"
       d="M 30.32454,27.119791 V 0"
       id="path14249" />
    <path
       style="fill:none;stroke:#ffffff;stroke-width:1.473;stroke-linecap:butt;stroke-linejoin:miter;stroke-dasharray:none;stroke-opacity:1"
       d="M 0.26458332,27.318229 V 0.1984378"
       id="path14249-5" />
    <path
       style="fill:none;stroke:#ffffff;stroke-width:2.173;stroke-linecap:butt;stroke-linejoin:miter;stroke-dasharray:none;stroke-opacity:1"
       d="M 331.33721,27.147189 V 0.02739866"
       id="path14249-5-4" />
    <path
       style="fill:none;stroke:#ffffff;stroke-width:1.47934;stroke-linecap:butt;stroke-linejoin:miter;stroke-dasharray:none;stroke-opacity:1"
       d="M 70.402583,27.318229 V -0.03542306"
       id="path14249-2" />
    <path
       style="fill:none;stroke:#ffffff;stroke-width:1.47934;stroke-linecap:butt;stroke-linejoin:miter;stroke-dasharray:none;stroke-opacity:1"
       d="M 110.48007,27.435159 V 0.08150725"
       id="path14249-2-1" />
    <path
       style="fill:none;stroke:#ffffff;stroke-width:1.47934;stroke-linecap:butt;stroke-linejoin:miter;stroke-dasharray:none;stroke-opacity:1"
       d="M 160.61562,27.427844 V 0.07419123"
       id="path14249-2-1-2" />
    <path
       style="fill:none;stroke:#ffffff;stroke-width:1.47934;stroke-linecap:butt;stroke-linejoin:miter;stroke-dasharray:none;stroke-opacity:1"
       d="M 210.75169,27.427843 V 0.07419067"
       id="path14249-2-1-2-8" />
    <path
       style="fill:none;stroke:#ffffff;stroke-width:1.47934;stroke-linecap:butt;stroke-linejoin:miter;stroke-dasharray:none;stroke-opacity:1"
       d="M 240.81329,27.341614 V -0.0120376"
       id="path14249-2-1-2-8-7" />
    <path
       style="fill:none;stroke:#ffffff;stroke-width:1.47934;stroke-linecap:butt;stroke-linejoin:miter;stroke-dasharray:none;stroke-opacity:1"
       d="M 320.93958,27.302868 V -0.0507847"
       id="path14249-2-1-2-8-7-4" />
  </g>
</svg>
